<?xml version="1.0" encoding="utf-8"?>
<!-- Generator: Adobe Illustrator 24.0.0, SVG Export Plug-In . SVG Version: 6.00 Build 0)  -->
<svg version="1.1" id="Layer_1" xmlns="http://www.w3.org/2000/svg" xmlns:xlink="http://www.w3.org/1999/xlink" x="0px" y="0px"
	 viewBox="0 0 738.2 542.7" style="enable-background:new 0 0 738.2 542.7;" xml:space="preserve">
<style type="text/css">
	.st0{opacity:0.5;}
	.st1{fill:#FFFFFF;}
	.st2{fill:#FFFFFF;fill-opacity:0.5;}
</style>
<g>
	<g class="st0">
		<path class="st1" d="M139.7,398.6H17.9l3.6-17.9l79.8-66.1c23-18.2,36.7-37.2,39.8-52.6c1.4-6.2,2-11.8,2-15.4
			c0-15.7-8.7-32.2-33.9-32.2c-23.8,0-38.6,12.3-48.7,36.1l-14.3-5.9c12.3-28.6,32.8-44.8,64.7-44.8s49.8,20.4,49.8,46.5
			c0,31.4-18.5,53.8-50.4,79.5L38.6,384h103.9L139.7,398.6z"/>
	</g>
	<g class="st0">
		<path class="st1" d="M186.3,137.8c0-58.5,25.2-136.1,85.1-136.1c34.7,0,51.5,24.9,51.5,66.1c0,58.5-25.2,136.1-85.1,136.1
			C203.1,203.9,186.3,179,186.3,137.8z M299.1,117.7l5-24.4c2-9.5,2.8-19.3,2.8-27.7c0-30.8-11.2-49.6-37.2-49.6
			c-30.2,0-50.7,28-59.6,72l-5,24.4c-2,9.5-2.8,19.3-2.8,27.7c0,30.8,11.2,49.6,37.2,49.6C269.7,189.6,290.2,161.6,299.1,117.7z"/>
	</g>
	<g>
		<path class="st1" d="M381.1,79.8c0-8.9,2.1-21,3.9-29.6c6.3-31,21.4-50.2,48.4-50.2c19,0,29.7,10.9,33.1,25.8l-13.2,5.7
			c-1.8-11.9-8.4-18.4-21.1-18.4c-17.7,0-26.6,11.5-31,33.5l-4.1,20.3c-1,4.9-1.3,9.1-1.3,12.3c0,15.9,6.5,24.9,21.3,24.9
			c13.8,0,22.4-7,27.5-20.1l12,5.8c-8.4,17.2-21.8,27.5-40.9,27.5C393.6,117.3,381.1,103.6,381.1,79.8z"/>
		<path class="st1" d="M536.5,115.3l-3.9-32H490l-16.7,32h-16.1L517.4,1.9h19.8L552,115.3H536.5z M524.8,16.1H524l-27.3,53.8h34.4
			L524.8,16.1z"/>
		<path class="st1" d="M569,115.3L591.8,1.9H607l-20,99.9h45.6l-2.8,13.5H569z"/>
		<path class="st1" d="M648.3,115.3L671,1.9h15.3l-20,99.9H712l-2.8,13.5H648.3z"/>
		<path class="st2" d="M351.9,258.9l22.7-113.4h66.1l-2.8,13.5h-50.8l-7,35.7h46.3l-2.8,13.5h-46.3l-10.2,50.7H351.9z"/>
		<path class="st2" d="M440.1,223.3c0-7,1.3-17.5,3.9-29.6c7.1-32.8,24.4-50.2,50.2-50.2c22.7,0,36.2,14,36.2,37.5
			c0,7-1.3,17.5-3.9,29.6c-7.1,32.8-24.4,50.2-50.2,50.2C453.5,260.9,440.1,246.9,440.1,223.3z M510.2,214.2l4.1-20.3
			c1-4.9,1.3-9.1,1.3-12.3c0-15.8-7-24.7-22.9-24.7c-18.5,0-28.1,11.4-32.5,33.3l-4.1,20.3c-1,4.9-1.3,9.1-1.3,12.3
			c0,15.8,7,24.7,22.9,24.7C496.3,247.5,505.8,236.2,510.2,214.2z"/>
		<path class="st2" d="M549.2,258.9h-14.3l22.7-113.4h38c18.2,0,25.3,9.6,25.3,26.2c0,19.7-10.1,34.6-27,38.3l13.6,48.9h-15.3
			L580,211.5h-21.4L549.2,258.9z M587.7,198.7c8.4,0,14.5-5,16.4-14.8c1.8-9.1,2.1-11.4,2.1-14.9c0-7.1-3.7-10.4-11.7-10.4h-25.2
			l-8.1,40.1L587.7,198.7L587.7,198.7z"/>
		<path class="st1" d="M326.5,363c0-8.9,2.1-21,3.9-29.6c6.3-31,21.4-50.2,48.4-50.2c19,0,29.7,10.9,33.1,25.8l-13.2,5.7
			c-1.8-11.9-8.4-18.4-21.1-18.4c-17.7,0-26.6,11.5-31,33.5l-4.1,20.3c-1,4.9-1.3,9.1-1.3,12.3c0,15.9,6.5,24.9,21.3,24.9
			c13.8,0,22.4-7,27.5-20.1l12,5.8c-8.4,17.2-21.8,27.5-40.9,27.5C339,400.6,326.5,386.9,326.5,363z"/>
		<path class="st1" d="M414.1,363c0-7,1.3-17.5,3.9-29.6c7.1-32.8,24.4-50.2,50.2-50.2c22.7,0,36.2,14,36.2,37.5
			c0,7-1.3,17.5-3.9,29.6c-7.1,32.8-24.4,50.2-50.2,50.2C427.6,400.6,414.1,386.6,414.1,363z M484.2,353.9l4.1-20.3
			c1-4.9,1.3-9.1,1.3-12.3c0-15.8-7-24.7-22.9-24.7c-18.5,0-28.1,11.4-32.5,33.3l-4.1,20.3c-1,4.9-1.3,9.1-1.3,12.3
			c0,15.8,7,24.7,22.9,24.7C470.3,387.2,479.9,375.9,484.2,353.9z"/>
		<path class="st1" d="M532.6,285.2h30.2c22.7,0,36.2,13.3,36.2,35.9c0,8.8-2.1,20.8-3.9,29.2c-6.3,29.2-22.4,48.2-50.2,48.2h-35.1
			L532.6,285.2z M546.4,385.6c18.7,0,28.3-10.9,32.5-31.7l4.1-20c1-4.9,1.3-9.1,1.3-12.3c0-14.9-7-23.4-22.9-23.4h-16.9L527,385.6
			H546.4z"/>
		<path class="st1" d="M605.4,398.6l22.7-113.4h68.1l-2.8,13.5h-52.8l-7,35.7h47.3l-2.8,13.5h-47.3l-7.5,37.2h55.2l-2.8,13.5
			L605.4,398.6L605.4,398.6z"/>
		<path class="st1" d="M710.2,299.2c0-9.9,6.6-16.9,15.7-16.9c7.1,0,12.4,5.4,12.4,12.5c0,9.9-6.6,16.9-15.7,16.9
			C715.5,311.7,710.2,306.3,710.2,299.2z M734.7,298.7c0.3-1.4,0.4-3.3,0.4-3.9c0-5.9-4.1-9.7-9.7-9.7c-6,0-10.6,4.1-11.8,10.1
			c-0.3,1.4-0.4,3.3-0.4,3.9c0,5.9,4.1,9.7,9.7,9.7C728.9,308.8,733.5,304.8,734.7,298.7z M720.6,304.6h-3.1l3-14.9h6
			c2.9,0,4.2,1.8,4.2,3.9c0,2.4-1.4,4.6-3.8,5.1l2.1,5.9h-3.2l-1.9-5.6h-2.2L720.6,304.6z M725,296.7c1.1,0,1.9-0.4,2.1-1.4
			c0.2-1.1,0.4-1.7,0.4-1.9c0-0.6-0.6-1.2-1.5-1.2h-2.9l-0.9,4.6h2.8V296.7z"/>
	</g>
	<g>
		<path class="st1" d="M179.4,200.5H57.6l3.6-17.9l79.8-66.1c23-18.2,36.7-37.2,39.8-52.6c1.4-6.2,2-11.8,2-15.4
			c0-15.7-8.7-32.2-33.9-32.2c-23.8,0-38.6,12.3-48.7,36.1l-14.3-5.9C98.2,18,118.6,1.7,150.5,1.7s49.8,20.4,49.8,46.5
			c0,31.4-18.5,53.8-50.4,79.5L78.3,186h103.9L179.4,200.5z"/>
	</g>
	<g>
		<path class="st1" d="M146.7,335.9c0-58.5,25.2-136.1,85.1-136.1c34.7,0,51.5,24.9,51.5,66.1c0,58.5-25.2,136.1-85.1,136.1
			C163.5,402,146.7,377,146.7,335.9z M259.5,315.7l5-24.4c2-9.5,2.8-19.3,2.8-27.7c0-30.8-11.2-49.6-37.2-49.6
			c-30.2,0-50.7,28-59.6,72l-5,24.4c-2,9.5-2.8,19.3-2.8,27.7c0,30.8,11.2,49.6,37.2,49.6C230.1,387.7,250.6,359.7,259.5,315.7z"/>
	</g>
	<g>
		<path class="st1" d="M39.5,514h-0.3c-3.4,6.5-10,10.7-18.9,10.7c-12,0-20.3-8.1-20.3-23.4c0-19.8,10-41.6,31-41.6
			c10.9,0,17.7,5.2,20.2,13.7l-4.7,2c-2.3-6.8-7-11-16.1-11c-11.6,0-20,8.8-22.9,22.9L6,495c-0.5,2.5-0.7,5-0.7,7.1
			c0,11.2,5.8,18,16.4,18c9,0,17.5-5.3,19.8-16.3l1.4-6.7H28.3l1.1-4.8h19.3l-6.2,31.4h-5L39.5,514z"/>
		<path class="st1" d="M63.5,523.6c-3.1,0-4.6-1.6-4.6-4.1c0-0.5,0-0.8,0.2-1.8L71.3,457h4.9l-12.4,62.2h7.3l-0.9,4.4L63.5,523.6
			L63.5,523.6z"/>
		<path class="st1" d="M81.6,506.7c0-16,8.9-30.2,23.4-30.2c9.6,0,16,6.8,16,18c0,16-8.9,30.2-23.4,30.2
			C88,524.7,81.6,518,81.6,506.7z M114.5,503.7l1.1-5.5c0.4-1.6,0.5-3.2,0.5-5c0-7-3.8-12.3-11.6-12.3c-8,0-14.1,6-16.2,16.6
			l-1.1,5.5c-0.4,1.6-0.5,3.2-0.5,5c0,7,3.8,12.3,11.6,12.3C106.3,520.3,112.4,514.3,114.5,503.7z"/>
		<path class="st1" d="M143,457h4.9l-6.1,30.6h0.3c3.8-7.4,8.4-11.2,15.5-11.2c8.8,0,14.3,6.9,14.3,17.4c0,14.8-7.6,30.9-22.5,30.9
			c-6.4,0-11.4-3.2-13-8.9h-0.3l-1.5,7.8h-5L143,457z M165.3,504l1.1-5.4c0.3-1.7,0.4-3.3,0.4-5.3c0-6.9-3.1-12.3-10.4-12.3
			c-3.9,0-6.8,1.5-9.7,4.2c-3.2,2.9-5.8,7-6.8,12.3l-2.2,10.7c-1.2,5.8,2.1,12,11.2,12C157.6,520.2,163.3,514.1,165.3,504z"/>
		<path class="st1" d="M215.2,523.6c-3.1,0-4.5-1.6-4.5-4.1c0-0.6,0.1-1.4,0.3-2.2l0.7-3.8h-0.3c-3.8,7.4-8.4,11.2-15.5,11.2
			c-8.8,0-14.3-6.9-14.3-17.4c0-14.8,7.6-30.9,22.5-30.9c6.4,0,11.4,3.2,13,8.9h0.3l1.5-7.8h4.9l-8.3,41.7h7l-0.9,4.4L215.2,523.6
			L215.2,523.6z M206.8,516c3.2-2.9,5.8-7,6.8-12.3l2.2-10.7c1.2-5.8-2.1-12-11.2-12c-8.6,0-14.3,6.1-16.4,16.2l-1.1,5.4
			c-0.3,1.7-0.4,3.3-0.4,5.3c0,6.9,3.1,12.3,10.4,12.3C201,520.2,203.9,518.7,206.8,516z"/>
		<path class="st1" d="M238,523.6c-3.1,0-4.6-1.6-4.6-4.1c0-0.5,0-0.8,0.2-1.8l12.1-60.7h4.9l-12.4,62.2h7.3l-0.9,4.4L238,523.6
			L238,523.6z"/>
		<path class="st1" d="M278,501.3c0-20.2,10.5-41.6,30.1-41.6c10.1,0,16.4,4.7,19,13.7l-4.8,2c-2.1-6.9-6.3-11-14.8-11
			c-10.8,0-19.3,8.8-22,22.3l-1.6,8.2c-0.5,2.9-0.7,5.4-0.7,7.5c0,10.6,5.8,17.6,15.7,17.6c8.6,0,13.6-4.4,17.9-12.2l4.4,2.2
			c-5.5,10.3-12.3,14.7-22.6,14.7C286.6,524.7,278,516.5,278,501.3z"/>
		<path class="st1" d="M343.7,457h4.9l-5.9,29.8h0.4c3.3-6.9,7.9-10.3,14.9-10.3c7.8,0,11.9,4.7,11.9,12.5c0,1.7-0.2,3.9-0.6,5.9
			l-4.9,24.3h7l-0.8,4.4h-6.7c-2.6,0-4.3-1.2-4.3-3.9c0-0.5,0-0.9,0.2-1.7l4.6-23.1c0.4-1.9,0.5-4,0.5-5.1c0-5.8-2.7-8.8-8.4-8.8
			c-3.6,0-6.9,1.3-9.9,4.4c-2.6,2.8-5,7.1-5.9,11.5l-5.3,26.7h-5L343.7,457z"/>
		<path class="st1" d="M415.3,523.6c-3.1,0-4.5-1.6-4.5-4.1c0-0.6,0.1-1.4,0.3-2.2l0.7-3.8h-0.3c-3.8,7.4-8.4,11.2-15.5,11.2
			c-8.8,0-14.3-6.9-14.3-17.4c0-14.8,7.6-30.9,22.5-30.9c6.4,0,11.4,3.2,13,8.9h0.3l1.5-7.8h4.9l-8.3,41.7h7l-0.9,4.4L415.3,523.6
			L415.3,523.6z M406.9,516c3.2-2.9,5.8-7,6.8-12.3l2.2-10.7c1.2-5.8-2.1-12-11.2-12c-8.6,0-14.3,6.1-16.4,16.2l-1.1,5.4
			c-0.3,1.7-0.4,3.3-0.4,5.3c0,6.9,3.1,12.3,10.4,12.3C401,520.2,404,518.7,406.9,516z"/>
		<path class="st1" d="M438.1,523.6c-3.1,0-4.6-1.6-4.6-4.1c0-0.5,0-0.8,0.2-1.8l12.1-60.7h4.9l-12.4,62.2h7.3l-0.9,4.4L438.1,523.6
			L438.1,523.6z"/>
		<path class="st1" d="M460.5,523.6c-3.1,0-4.6-1.6-4.6-4.1c0-0.5,0-0.8,0.2-1.8l12.1-60.7h4.9l-12.4,62.2h7.3l-0.9,4.4L460.5,523.6
			L460.5,523.6z"/>
		<path class="st1" d="M478.6,505.9c0-15.8,9.4-29.4,23.5-29.4c8.1,0,14.7,4.1,14.7,11.9c0,8.5-7.8,14.6-32.8,14.9
			c-0.2,1.2-0.3,2.9-0.3,3.9c0,8.6,4,13.1,12.1,13.1c6.5,0,11.7-3.5,15.3-8.9l3.4,2.7c-5.3,7.7-12,10.6-19,10.6
			C484.7,524.7,478.6,518.3,478.6,505.9z M485,497.2l-0.5,2.2c22.7-0.6,27.1-4.8,27.1-11.1c0-5.1-4-7.5-10.1-7.5
			C493.2,480.8,487,487.5,485,497.2z"/>
		<path class="st1" d="M523.4,523.6l9.2-46.1h5l-1.9,9.3h0.4c3.3-6.9,7.9-10.3,14.9-10.3c7.8,0,11.9,4.7,11.9,12.5
			c0,1.7-0.2,3.9-0.6,5.9l-4.9,24.3h7l-0.9,4.4h-6.7c-2.7,0-4.4-1.3-4.4-3.8c0-0.8,0.2-1.5,0.4-2.5l4.5-22.4c0.4-1.9,0.5-4,0.5-5.1
			c0-5.8-2.7-8.8-8.4-8.8c-3.6,0-6.9,1.3-9.9,4.4c-2.6,2.8-5,7.1-5.9,11.5l-5.3,26.7H523.4z"/>
		<path class="st1" d="M586.8,542.7c-11.9,0-18-3.8-18-10.4c0-5.1,3.4-8.9,9.4-10.8l0.1-0.5c-2.4-1-3.7-3-3.7-5.6
			c0-4.4,3.5-7.3,9.2-8.6l0.1-0.5c-4.2-2.1-6.5-6.1-6.5-11.2c0-11,7.8-18.5,18.7-18.5c3.6,0,6.7,1,9,2.5l0.4-2.6
			c0.5-2.9,2-4.6,5-4.6h7.3l-0.8,4.4h-8.5l-0.9,5c1.7,2.2,2.6,4.9,2.6,8.1c0,10.9-7.9,18.4-18.9,18.4c-1.4,0-2.5-0.1-3.8-0.4
			c-5.3,1.2-8.3,3.1-8.3,6.4c0,2.2,1.6,3.6,6,3.6h11.2c10.1,0,14,3.8,14,10.2C610.6,536.3,603.9,542.7,586.8,542.7z M596.2,522.1
			h-14.9c-4.6,1.6-7.4,4.5-7.4,8.8c0,4.9,3.7,7.7,11.4,7.7h3.7c10.6,0,16.5-3.6,16.5-10.1C605.4,524.5,603.1,522.1,596.2,522.1z
			 M604.5,493.8c0.5-3.2,0.7-4.1,0.7-5c0-4.9-3.2-8.3-9.6-8.3c-7.2,0-11.3,4.1-12.4,10c-0.6,3.2-0.8,4.1-0.8,5c0,5,3.2,8.3,9.6,8.3
			C599.2,503.8,603.4,499.8,604.5,493.8z"/>
		<path class="st1" d="M619.5,505.9c0-15.8,9.4-29.4,23.5-29.4c8.1,0,14.7,4.1,14.7,11.9c0,8.5-7.8,14.6-32.8,14.9
			c-0.2,1.2-0.3,2.9-0.3,3.9c0,8.6,4,13.1,12.1,13.1c6.5,0,11.7-3.5,15.3-8.9l3.4,2.7c-5.3,7.7-12,10.6-19,10.6
			C625.6,524.7,619.5,518.3,619.5,505.9z M625.9,497.2l-0.5,2.2c22.7-0.6,27.1-4.8,27.1-11.1c0-5.1-4-7.5-10.1-7.5
			C634,480.8,627.8,487.5,625.9,497.2z"/>
	</g>
</g>
</svg>
